<svg xmlns="http://www.w3.org/2000/svg" viewBox="0 0 86.52 29.63"><defs><style>.cls-1{fill:#ff6464;}.cls-2{fill:#9cff9c;}.cls-3{fill:#66f;}</style></defs><g id="Слой_2" data-name="Слой 2"><g id="Слой_1-2" data-name="Слой 1"><rect class="cls-1" width="8.87" height="8.87"/><rect class="cls-1" x="10.71" width="8.87" height="8.87"/><rect class="cls-1" x="21.41" width="8.87" height="8.87"/><rect class="cls-1" x="32.12" width="8.87" height="8.87"/><rect class="cls-1" x="42.82" width="8.87" height="8.87"/><rect class="cls-1" x="53.53" width="8.87" height="8.87"/><rect class="cls-2" y="10.38" width="8.87" height="8.87"/><rect class="cls-2" x="10.71" y="10.38" width="8.87" height="8.87"/><rect class="cls-2" x="21.41" y="10.38" width="8.87" height="8.87"/><rect class="cls-2" x="32.12" y="10.38" width="8.87" height="8.87"/><rect class="cls-2" x="42.82" y="10.38" width="8.87" height="8.87"/><rect class="cls-2" x="53.53" y="10.38" width="8.87" height="8.87"/><rect class="cls-3" y="20.77" width="8.87" height="8.87"/><rect class="cls-3" x="10.71" y="20.77" width="8.87" height="8.87"/><rect class="cls-3" x="21.41" y="20.77" width="8.87" height="8.87"/><rect class="cls-3" x="32.12" y="20.77" width="8.87" height="8.87"/><rect class="cls-3" x="42.82" y="20.77" width="8.87" height="8.87"/><rect class="cls-3" x="53.53" y="20.77" width="8.87" height="8.87"/><rect class="cls-1" x="66.95" width="8.87" height="8.87"/><rect class="cls-1" x="77.66" width="8.87" height="8.87"/><rect class="cls-2" x="66.95" y="10.38" width="8.87" height="8.87"/><rect class="cls-2" x="77.66" y="10.38" width="8.87" height="8.87"/><rect class="cls-3" x="66.95" y="20.77" width="8.87" height="8.87"/><rect class="cls-3" x="77.66" y="20.77" width="8.87" height="8.87"/></g></g></svg>